<?xml version="1.0" encoding="UTF-8" standalone="no"?>
<!-- Created with Inkscape (http://www.inkscape.org/) -->

<svg
   width="1920"
   height="1080"
   viewBox="0 0 508 285.75"
   version="1.1"
   id="svg5"
   inkscape:version="1.2.2 (732a01da63, 2022-12-09)"
   sodipodi:docname="sysinfo.svg"
   xmlns:inkscape="http://www.inkscape.org/namespaces/inkscape"
   xmlns:sodipodi="http://sodipodi.sourceforge.net/DTD/sodipodi-0.dtd"
   xmlns="http://www.w3.org/2000/svg"
   xmlns:svg="http://www.w3.org/2000/svg">
  <sodipodi:namedview
     id="namedview7"
     pagecolor="#0e1719"
     bordercolor="#111111"
     borderopacity="1"
     inkscape:showpageshadow="0"
     inkscape:pageopacity="0"
     inkscape:pagecheckerboard="false"
     inkscape:deskcolor="#d1d1d1"
     inkscape:document-units="mm"
     showgrid="false"
     inkscape:zoom="1.006154"
     inkscape:cx="533.7155"
     inkscape:cy="677.82863"
     inkscape:window-width="1920"
     inkscape:window-height="1009"
     inkscape:window-x="-8"
     inkscape:window-y="-8"
     inkscape:window-maximized="1"
     inkscape:current-layer="svg5" />
  <defs
     id="defs2">
    <clipPath
       clipPathUnits="userSpaceOnUse"
       id="clipPath36548">
      <path
         id="path36550"
         style="fill:#0000ff;fill-opacity:1;stroke:none;stroke-width:2.27542;stroke-linecap:round;stroke-linejoin:round;stroke-dasharray:none;stroke-opacity:1;paint-order:fill markers stroke"
         d="m 42.04498,250.27452 c 9.921221,0.0835 53.250769,0.25226 64.55218,0.34736 11.30141,0.0951 12.28964,8.20487 15.31338,25.73443 3.02375,17.52957 6.64795,36.28959 6.25263,39.54169 -0.39532,3.25207 -24.31073,-16.99191 -31.639691,-16.99191 H 54.89761 c -7.328961,0 -35.7122,9.84739 -34.07127,6.57085 1.64093,-3.27658 2.04515,-7.86662 6.252629,-28.42588 4.207481,-20.55927 5.044781,-26.86003 14.966011,-26.77654 z"
         sodipodi:nodetypes="czzzsszzc" />
    </clipPath>
  </defs>
  <path
     id="rect36748"
     style="fill:none;fill-opacity:1;stroke:#ffffff;stroke-width:1.16443;stroke-linecap:round;stroke-linejoin:round;stroke-dasharray:none;stroke-opacity:1;paint-order:fill markers stroke"
     d="M 24.036259 55.748535 C 16.70731 55.748535 10.807092 60.551172 10.807092 66.51687 L 10.807092 246.93738 C 10.807092 252.90308 16.70731 257.70572 24.036259 257.70572 L 31.668351 257.70572 C 33.722086 252.22967 36.426762 250.22685 42.044462 250.27413 C 51.965679 250.35763 95.295193 250.52629 106.59659 250.62139 C 112.57283 250.67168 115.66434 252.96529 117.69876 257.70572 L 124.85336 257.70572 C 132.18231 257.70572 138.08253 252.90308 138.08253 246.93738 L 138.08253 66.51687 C 138.08253 60.551172 132.18231 55.748535 124.85336 55.748535 L 24.036259 55.748535 z " />
</svg>
