<?xml version="1.0" encoding="UTF-8" standalone="no"?>
<!-- Created with Inkscape (http://www.inkscape.org/) -->

<svg
   width="1920"
   height="1080"
   viewBox="0 0 508 285.75"
   version="1.1"
   id="svg5"
   inkscape:version="1.2.2 (732a01da63, 2022-12-09)"
   sodipodi:docname="wheelinner.svg"
   xmlns:inkscape="http://www.inkscape.org/namespaces/inkscape"
   xmlns:sodipodi="http://sodipodi.sourceforge.net/DTD/sodipodi-0.dtd"
   xmlns="http://www.w3.org/2000/svg"
   xmlns:svg="http://www.w3.org/2000/svg">
  <sodipodi:namedview
     id="namedview7"
     pagecolor="#ffffff"
     bordercolor="#111111"
     borderopacity="1"
     inkscape:showpageshadow="0"
     inkscape:pageopacity="0"
     inkscape:pagecheckerboard="1"
     inkscape:deskcolor="#d1d1d1"
     inkscape:document-units="mm"
     showgrid="false"
     inkscape:zoom="0.2692943"
     inkscape:cx="1398.0987"
     inkscape:cy="564.43824"
     inkscape:window-width="1920"
     inkscape:window-height="1009"
     inkscape:window-x="-8"
     inkscape:window-y="-8"
     inkscape:window-maximized="1"
     inkscape:current-layer="layer1" />
  <defs
     id="defs2" />
  <g
     inkscape:label="Layer 1"
     inkscape:groupmode="layer"
     id="layer1">
    <path
       id="path234"
       style="fill:#ffffff;fill-opacity:1;stroke:none;stroke-width:2.87461;paint-order:fill markers stroke"
       d="M 675.93931,-196.64467 A 339.52026,339.52026 0 0 0 335.87262,142.32972 339.52026,339.52026 0 0 0 674.84776,482.39493 339.52026,339.52026 0 0 0 1014.913,143.42126 339.52026,339.52026 0 0 0 675.93931,-196.64467 Z M 675.721,-60.836614 A 203.71215,203.71215 0 0 1 879.10493,143.20295 203.71215,203.71215 0 0 1 675.06607,346.58689 203.71215,203.71215 0 0 1 471.68144,142.54803 203.71215,203.71215 0 0 1 675.721,-60.836614 Z" />
  </g>
</svg>
