<?xml version="1.0" encoding="UTF-8" standalone="no"?>
<!-- Created with Inkscape (http://www.inkscape.org/) -->

<svg
   width="1920"
   height="1080"
   viewBox="0 0 508 285.75"
   version="1.1"
   id="svg5"
   inkscape:version="1.2.2 (732a01da63, 2022-12-09)"
   sodipodi:docname="wheel.svg"
   inkscape:export-filename="..\..\..\Games\EmulationStation\themes\cody\assets\wheelblur.png"
   inkscape:export-xdpi="96"
   inkscape:export-ydpi="96"
   xmlns:inkscape="http://www.inkscape.org/namespaces/inkscape"
   xmlns:sodipodi="http://sodipodi.sourceforge.net/DTD/sodipodi-0.dtd"
   xmlns="http://www.w3.org/2000/svg"
   xmlns:svg="http://www.w3.org/2000/svg">
  <sodipodi:namedview
     id="namedview7"
     pagecolor="#ffffff"
     bordercolor="#111111"
     borderopacity="1"
     inkscape:showpageshadow="0"
     inkscape:pageopacity="0"
     inkscape:pagecheckerboard="1"
     inkscape:deskcolor="#d1d1d1"
     inkscape:document-units="mm"
     showgrid="false"
     inkscape:zoom="0.7616793"
     inkscape:cx="1901.719"
     inkscape:cy="601.30294"
     inkscape:window-width="1920"
     inkscape:window-height="1009"
     inkscape:window-x="-8"
     inkscape:window-y="-8"
     inkscape:window-maximized="1"
     inkscape:current-layer="layer1" />
  <defs
     id="defs2" />
  <g
     inkscape:label="Layer 1"
     inkscape:groupmode="layer"
     id="layer1">
    <path
       id="path234-5-7"
       style="fill:#fffffe;fill-opacity:1;stroke:none;stroke-width:3.43157;stroke-dasharray:none;stroke-opacity:1;paint-order:fill markers stroke"
       d="M 635.69276,-5.9190216 A 148.28407,148.28406 0 0 0 487.17003,142.12663 148.28407,148.28406 0 0 0 635.21606,290.64871 148.28407,148.28406 0 0 0 783.73806,142.60336 148.28407,148.28406 0 0 0 635.69276,-5.9190216 Z m -0.095,59.3135706 a 88.970441,88.970441 0 0 1 88.8271,89.113481 88.970441,88.970441 0 0 1 -89.1131,88.82707 88.970441,88.970441 0 0 1 -88.82741,-89.11314 88.970441,88.970441 0 0 1 89.11341,-88.827411 z" />
  </g>
</svg>
